<svg width="27" height="27" viewBox="0 0 27 27" fill="none" xmlns="http://www.w3.org/2000/svg">
<path d="M19.125 14.625H7.875C7.57663 14.625 7.29048 14.5065 7.07951 14.2955C6.86853 14.0845 6.75 13.7984 6.75 13.5C6.75 13.2016 6.86853 12.9155 7.07951 12.7045C7.29048 12.4935 7.57663 12.375 7.875 12.375H19.125C19.4234 12.375 19.7095 12.4935 19.9205 12.7045C20.1315 12.9155 20.25 13.2016 20.25 13.5C20.25 13.7984 20.1315 14.0845 19.9205 14.2955C19.7095 14.5065 19.4234 14.625 19.125 14.625Z" fill="#1F1F1F"/>
<path d="M13.5 2.25C11.3705 2.24968 9.28468 2.85376 7.48494 3.99202C5.6852 5.13028 4.24549 6.75596 3.33314 8.6801C2.4208 10.6042 2.0733 12.7478 2.33103 14.8616C2.58877 16.9754 3.44116 18.9727 4.78912 20.6213L2.57962 22.8296C2.42233 22.987 2.31523 23.1874 2.27184 23.4056C2.22845 23.6238 2.25073 23.8499 2.33586 24.0555C2.42099 24.261 2.56514 24.4367 2.7501 24.5603C2.93507 24.6839 3.15253 24.75 3.375 24.75H13.5C16.4837 24.75 19.3452 23.5647 21.4549 21.455C23.5647 19.3452 24.75 16.4837 24.75 13.5C24.75 10.5163 23.5647 7.65483 21.4549 5.54505C19.3452 3.43526 16.4837 2.25 13.5 2.25ZM10.125 7.875H16.875C17.1734 7.875 17.4595 7.99353 17.6705 8.2045C17.8815 8.41548 18 8.70163 18 9C18 9.29837 17.8815 9.58452 17.6705 9.7955C17.4595 10.0065 17.1734 10.125 16.875 10.125H10.125C9.82663 10.125 9.54048 10.0065 9.3295 9.7955C9.11852 9.58452 9 9.29837 9 9C9 8.70163 9.11852 8.41548 9.3295 8.2045C9.54048 7.99353 9.82663 7.875 10.125 7.875ZM16.875 19.125H10.125C9.82663 19.125 9.54048 19.0065 9.3295 18.7955C9.11852 18.5845 9 18.2984 9 18C9 17.7016 9.11852 17.4155 9.3295 17.2045C9.54048 16.9935 9.82663 16.875 10.125 16.875H16.875C17.1734 16.875 17.4595 16.9935 17.6705 17.2045C17.8815 17.4155 18 17.7016 18 18C18 18.2984 17.8815 18.5845 17.6705 18.7955C17.4595 19.0065 17.1734 19.125 16.875 19.125ZM19.125 14.625H7.875C7.57663 14.625 7.29048 14.5065 7.0795 14.2955C6.86852 14.0845 6.75 13.7984 6.75 13.5C6.75 13.2016 6.86852 12.9155 7.0795 12.7045C7.29048 12.4935 7.57663 12.375 7.875 12.375H19.125C19.4234 12.375 19.7095 12.4935 19.9205 12.7045C20.1315 12.9155 20.25 13.2016 20.25 13.5C20.25 13.7984 20.1315 14.0845 19.9205 14.2955C19.7095 14.5065 19.4234 14.625 19.125 14.625Z" fill="white"/>
<path d="M16.875 19.125H10.125C9.82663 19.125 9.54048 19.0065 9.32951 18.7955C9.11853 18.5845 9 18.2984 9 18C9 17.7016 9.11853 17.4155 9.32951 17.2045C9.54048 16.9935 9.82663 16.875 10.125 16.875H16.875C17.1734 16.875 17.4595 16.9935 17.6705 17.2045C17.8815 17.4155 18 17.7016 18 18C18 18.2984 17.8815 18.5845 17.6705 18.7955C17.4595 19.0065 17.1734 19.125 16.875 19.125ZM16.875 10.125H10.125C9.82663 10.125 9.54048 10.0065 9.32951 9.79549C9.11853 9.58452 9 9.29837 9 9C9 8.70163 9.11853 8.41548 9.32951 8.20451C9.54048 7.99353 9.82663 7.875 10.125 7.875H16.875C17.1734 7.875 17.4595 7.99353 17.6705 8.20451C17.8815 8.41548 18 8.70163 18 9C18 9.29837 17.8815 9.58452 17.6705 9.79549C17.4595 10.0065 17.1734 10.125 16.875 10.125Z" fill="#1F1F1F"/>
</svg>
