<svg width="15" height="3" viewBox="0 0 15 3" fill="none" xmlns="http://www.w3.org/2000/svg">
<g clip-path="url(#clip0_67_65)">
<path d="M7.5 0C8.32843 -3.62117e-08 9 0.671573 9 1.5C9 2.32843 8.32843 3 7.5 3C6.67157 3 6 2.32843 6 1.5C6 0.671573 6.67157 3.62117e-08 7.5 0Z" fill="white"/>
<path d="M1.5 0C2.32843 -3.62117e-08 3 0.671573 3 1.5C3 2.32843 2.32843 3 1.5 3C0.671573 3 3.62118e-08 2.32843 0 1.5C-3.62116e-08 0.671573 0.671573 3.62117e-08 1.5 0Z" fill="white"/>
<path d="M13.5 0C14.3284 -3.62117e-08 15 0.671573 15 1.5C15 2.32843 14.3284 3 13.5 3C12.6716 3 12 2.32843 12 1.5C12 0.671573 12.6716 3.62117e-08 13.5 0Z" fill="white"/>
</g>
<defs>
<clipPath id="clip0_67_65">
<rect width="15" height="3" fill="white"/>
</clipPath>
</defs>
</svg>
