<svg width="12" height="12" viewBox="0 0 12 12" fill="none" xmlns="http://www.w3.org/2000/svg">
<path d="M10.5 1.5V7.75C10.5 8.21413 10.3156 8.65925 9.98744 8.98744C9.65925 9.31563 9.21413 9.5 8.75 9.5C8.28587 9.5 7.84075 9.31563 7.51256 8.98744C7.18437 8.65925 7 8.21413 7 7.75C7 7.28587 7.18437 6.84075 7.51256 6.51256C7.84075 6.18437 8.28587 6 8.75 6C9.02 6 9.275 6.06 9.5 6.17V3.235L4.5 4.3V8.75C4.5 9.21413 4.31563 9.65925 3.98744 9.98744C3.65925 10.3156 3.21413 10.5 2.75 10.5C2.28587 10.5 1.84075 10.3156 1.51256 9.98744C1.18437 9.65925 1 9.21413 1 8.75C1 8.28587 1.18437 7.84075 1.51256 7.51256C1.84075 7.18437 2.28587 7 2.75 7C3.02 7 3.275 7.06 3.5 7.17V3L10.5 1.5Z" fill="white"/>
</svg>
